<svg width="462" height="377" viewBox="0 0 462 377" fill="none" xmlns="http://www.w3.org/2000/svg">
<g clip-path="url(#clip0)">
<mask id="mask0" style="mask-type:alpha" maskUnits="userSpaceOnUse" x="93" y="24" width="405" height="345">
<path fill-rule="evenodd" clip-rule="evenodd" d="M498 24H335V260H93V369H335H498V260V24Z" fill="#C4C4C4"/>
</mask>
<g mask="url(#mask0)">
<path d="M266 68.4814C199.226 68.4814 144.901 122.545 144.901 189C144.901 255.455 199.226 309.519 266 309.519C332.774 309.519 387.099 255.454 387.099 189C387.099 122.546 332.775 68.4814 266 68.4814ZM266 310.809C198.51 310.809 143.604 256.166 143.604 189C143.604 121.834 198.51 67.1914 266 67.1914C333.489 67.1914 388.395 121.834 388.395 189C388.395 256.166 333.489 310.809 266 310.809Z" fill="#FBAD41"/>
<path d="M266 55.9873C192.303 55.9873 132.347 115.657 132.347 189C132.347 262.343 192.303 322.013 266 322.013C339.697 322.013 399.653 262.343 399.653 189C399.653 115.657 339.697 55.9873 266 55.9873ZM266 323.303C191.589 323.303 131.05 263.055 131.05 189C131.05 114.945 191.589 54.6973 266 54.6973C340.411 54.6973 400.95 114.945 400.95 189C400.95 263.055 340.412 323.303 266 323.303Z" fill="#FC9B3E"/>
<path d="M266 43.4931C185.381 43.4931 119.792 108.767 119.792 189C119.792 269.233 185.381 334.507 266 334.507C346.619 334.507 412.208 269.233 412.208 189C412.208 108.767 346.619 43.4931 266 43.4931ZM266 335.797C184.666 335.797 118.496 269.944 118.496 189C118.496 108.056 184.666 42.2031 266 42.2031C347.334 42.2031 413.504 108.056 413.504 189C413.504 269.944 347.334 335.797 266 335.797Z" fill="#FD893A"/>
<path d="M266 30.999C178.462 30.999 107.238 101.882 107.238 189C107.238 276.118 178.462 347.001 266 347.001C353.538 347.001 424.762 276.122 424.762 189C424.762 101.878 353.542 30.999 266 30.999ZM266 348.291C177.743 348.291 105.942 276.833 105.942 189C105.942 101.166 177.743 29.709 266 29.709C354.257 29.709 426.058 101.166 426.058 189C426.058 276.833 354.257 348.291 266 348.291Z" fill="#FE7837"/>
<path d="M266 18.5048C171.536 18.5048 94.6837 94.9889 94.6837 189C94.6837 283.011 171.536 359.495 266 359.495C360.464 359.495 437.316 283.011 437.316 189C437.316 94.9889 360.465 18.5048 266 18.5048ZM266 360.785C170.822 360.785 93.3875 283.723 93.3875 189C93.3875 94.2769 170.822 17.2148 266 17.2148C361.178 17.2148 438.612 94.2769 438.612 189C438.612 283.723 361.179 360.785 266 360.785Z" fill="#FF6633"/>
</g>
</g>
<mask id="mask1" style="mask-type:alpha" maskUnits="userSpaceOnUse" x="0" y="0" width="336" height="260">
<path fill-rule="evenodd" clip-rule="evenodd" d="M335.622 0H0V259.538H196.127C195.38 258.809 194.645 258.068 193.921 257.316H2.22266V25.0281H333.399V114.125C334.151 114.811 334.892 115.509 335.622 116.217V0Z" fill="#0051C3"/>
</mask>
<g mask="url(#mask1)">
<path d="M334.511 1.11133H1.11133V258.427H334.511V1.11133Z" fill="white"/>
<path d="M334.511 1.11133H1.11133V258.427H334.511V1.11133Z" fill="url(#paint0_linear)"/>
<path d="M334.511 1.11133H1.11133V258.427H334.511V1.11133Z" fill="url(#paint1_linear)"/>
<path fill-rule="evenodd" clip-rule="evenodd" d="M0 0H335.622V259.538H0V0ZM2.22266 25.0281V257.316H333.399V25.0281H2.22266Z" fill="#0051C3"/>
<path d="M11.9609 16.9936C14.229 16.9936 16.0677 15.1608 16.0677 12.8999C16.0677 10.639 14.229 8.80615 11.9609 8.80615C9.69271 8.80615 7.854 10.639 7.854 12.8999C7.854 15.1608 9.69271 16.9936 11.9609 16.9936Z" fill="white"/>
<path d="M11.9609 16.9936C14.229 16.9936 16.0677 15.1608 16.0677 12.8999C16.0677 10.639 14.229 8.80615 11.9609 8.80615C9.69271 8.80615 7.854 10.639 7.854 12.8999C7.854 15.1608 9.69271 16.9936 11.9609 16.9936Z" fill="url(#paint2_linear)"/>
<path d="M11.9609 16.9936C14.229 16.9936 16.0677 15.1608 16.0677 12.8999C16.0677 10.639 14.229 8.80615 11.9609 8.80615C9.69271 8.80615 7.854 10.639 7.854 12.8999C7.854 15.1608 9.69271 16.9936 11.9609 16.9936Z" fill="url(#paint3_linear)"/>
<path d="M25.2436 16.9936C27.5118 16.9936 29.3505 15.1608 29.3505 12.8999C29.3505 10.639 27.5118 8.80615 25.2436 8.80615C22.9754 8.80615 21.1367 10.639 21.1367 12.8999C21.1367 15.1608 22.9754 16.9936 25.2436 16.9936Z" fill="white"/>
<path d="M25.2436 16.9936C27.5118 16.9936 29.3505 15.1608 29.3505 12.8999C29.3505 10.639 27.5118 8.80615 25.2436 8.80615C22.9754 8.80615 21.1367 10.639 21.1367 12.8999C21.1367 15.1608 22.9754 16.9936 25.2436 16.9936Z" fill="url(#paint4_linear)"/>
<path d="M25.2436 16.9936C27.5118 16.9936 29.3505 15.1608 29.3505 12.8999C29.3505 10.639 27.5118 8.80615 25.2436 8.80615C22.9754 8.80615 21.1367 10.639 21.1367 12.8999C21.1367 15.1608 22.9754 16.9936 25.2436 16.9936Z" fill="url(#paint5_linear)"/>
<path d="M38.5248 16.9936C40.793 16.9936 42.6317 15.1608 42.6317 12.8999C42.6317 10.639 40.793 8.80615 38.5248 8.80615C36.2567 8.80615 34.418 10.639 34.418 12.8999C34.418 15.1608 36.2567 16.9936 38.5248 16.9936Z" fill="white"/>
<path d="M38.5248 16.9936C40.793 16.9936 42.6317 15.1608 42.6317 12.8999C42.6317 10.639 40.793 8.80615 38.5248 8.80615C36.2567 8.80615 34.418 10.639 34.418 12.8999C34.418 15.1608 36.2567 16.9936 38.5248 16.9936Z" fill="url(#paint6_linear)"/>
<path d="M38.5248 16.9936C40.793 16.9936 42.6317 15.1608 42.6317 12.8999C42.6317 10.639 40.793 8.80615 38.5248 8.80615C36.2567 8.80615 34.418 10.639 34.418 12.8999C34.418 15.1608 36.2567 16.9936 38.5248 16.9936Z" fill="url(#paint7_linear)"/>
</g>
<path d="M166.769 239.056H17.9329V80.6924H315.605V93" stroke="#73CEE6" stroke-width="2"/>
<path fill-rule="evenodd" clip-rule="evenodd" d="M17.0994 42.1089H316.438V68.306H17.0994V42.1089ZM18.7664 43.7759V66.639H314.771V43.7759H18.7664Z" fill="#FF6633"/>
<path d="M449 358.666L344.451 256.051C361.974 235.471 370.834 208.881 369.162 181.886C367.491 154.89 355.419 129.6 335.491 111.346C315.564 93.0927 289.338 83.3021 262.344 84.0388C235.349 84.7754 209.694 95.9817 190.789 115.295C171.883 134.609 161.204 160.52 161.003 187.566C160.801 214.612 171.094 240.68 189.709 260.274C208.325 279.868 233.81 291.456 260.791 292.596C287.771 293.736 314.14 284.338 334.337 266.384L438.889 369L449 358.666ZM165.872 188.519C165.872 168.817 171.704 149.558 182.633 133.177C193.561 116.795 209.094 104.027 227.268 96.4876C245.441 88.9479 265.439 86.9751 284.732 90.8186C304.024 94.662 321.746 104.149 335.656 118.08C349.565 132.011 359.038 149.761 362.875 169.084C366.713 188.407 364.743 208.436 357.216 226.638C349.688 244.84 336.94 260.397 320.585 271.343C304.229 282.289 285 288.131 265.329 288.131C238.961 288.101 213.681 277.597 195.035 258.922C176.39 240.248 165.902 214.929 165.872 188.519Z" fill="#0055DC"/>
<mask id="mask2" style="mask-type:alpha" maskUnits="userSpaceOnUse" x="169" y="91" width="194" height="194">
<path d="M266 285C319.572 285 363 241.572 363 188C363 134.428 319.572 91 266 91C212.428 91 169 134.428 169 188C169 241.572 212.428 285 266 285Z" fill="#E2F5FA"/>
</mask>
<g mask="url(#mask2)">
<rect x="177.5" y="161.5" width="314" height="52" rx="26" stroke="#0055DC" stroke-width="3"/>
<rect x="182.5" y="166.5" width="304" height="42" rx="21" stroke="#C5EBF5" stroke-width="7"/>
<rect x="261" y="183" width="188" height="10" rx="5" fill="#0055DC"/>
<path d="M209.023 193H211.9L213.587 186.825H213.709L215.396 193H218.279L220.945 183.182H218.196L216.7 189.74H216.617L215.006 183.182H212.303L210.717 189.778H210.628L209.107 183.182H206.352L209.023 193ZM224.734 193H227.61L229.298 186.825H229.419L231.107 193H233.99L236.655 183.182H233.907L232.411 189.74H232.328L230.717 183.182H228.013L226.428 189.778H226.338L224.817 183.182H222.062L224.734 193ZM240.445 193H243.321L245.008 186.825H245.13L246.817 193H249.7L252.366 183.182H249.617L248.121 189.74H248.038L246.427 183.182H243.724L242.138 189.778H242.049L240.528 183.182H237.773L240.445 193ZM254.474 193.166C255.292 193.166 256.002 192.482 256.008 191.632C256.002 190.795 255.292 190.111 254.474 190.111C253.63 190.111 252.933 190.795 252.94 191.632C252.933 192.482 253.63 193.166 254.474 193.166Z" fill="#6ECCE5"/>
</g>
<g opacity="0.4">
<path d="M358.695 158L236 280.622L254.297 284.924L268.288 286L363 191.345V178.437L358.695 158Z" fill="white" fill-opacity="0.5"/>
<path d="M262.007 92L169 182.794L171.163 211.978L181.978 239L315 106.051L291.207 95.2426L262.007 92Z" fill="white" fill-opacity="0.5"/>
<path d="M326.343 113L190 249.343L197.575 258L335 120.575L326.343 113Z" fill="white" fill-opacity="0.5"/>
</g>
<defs>
<linearGradient id="paint0_linear" x1="167.811" y1="1.11133" x2="167.811" y2="258.427" gradientUnits="userSpaceOnUse">
<stop stop-color="white"/>
<stop offset="1" stop-color="white" stop-opacity="0"/>
</linearGradient>
<linearGradient id="paint1_linear" x1="167.811" y1="1.11133" x2="167.811" y2="258.427" gradientUnits="userSpaceOnUse">
<stop stop-color="white"/>
<stop offset="1" stop-color="white" stop-opacity="0"/>
</linearGradient>
<linearGradient id="paint2_linear" x1="11.9609" y1="8.80615" x2="11.9609" y2="16.9936" gradientUnits="userSpaceOnUse">
<stop stop-color="white"/>
<stop offset="1" stop-color="white" stop-opacity="0"/>
</linearGradient>
<linearGradient id="paint3_linear" x1="11.9609" y1="8.80615" x2="11.9609" y2="16.9936" gradientUnits="userSpaceOnUse">
<stop stop-color="white"/>
<stop offset="1" stop-color="white" stop-opacity="0"/>
</linearGradient>
<linearGradient id="paint4_linear" x1="25.2436" y1="8.80615" x2="25.2436" y2="16.9936" gradientUnits="userSpaceOnUse">
<stop stop-color="white"/>
<stop offset="1" stop-color="white" stop-opacity="0"/>
</linearGradient>
<linearGradient id="paint5_linear" x1="25.2436" y1="8.80615" x2="25.2436" y2="16.9936" gradientUnits="userSpaceOnUse">
<stop stop-color="white"/>
<stop offset="1" stop-color="white" stop-opacity="0"/>
</linearGradient>
<linearGradient id="paint6_linear" x1="38.5248" y1="8.80615" x2="38.5248" y2="16.9936" gradientUnits="userSpaceOnUse">
<stop stop-color="white"/>
<stop offset="1" stop-color="white" stop-opacity="0"/>
</linearGradient>
<linearGradient id="paint7_linear" x1="38.5248" y1="8.80615" x2="38.5248" y2="16.9936" gradientUnits="userSpaceOnUse">
<stop stop-color="white"/>
<stop offset="1" stop-color="white" stop-opacity="0"/>
</linearGradient>
<clipPath id="clip0">
<rect width="388" height="344" fill="white" transform="translate(72 17)"/>
</clipPath>
</defs>
</svg>
